HIERARCHY
ROOT joint_Root
{
	OFFSET 0.0 0.0 0.0
	CHANNELS 6 Xposition Yposition Zposition Zrotation Xrotation Yrotation 
	JOINT Hips
	{
		OFFSET 4.5925 91.4895 -427.239
		CHANNELS 6 Xposition Yposition Zposition Zrotation Xrotation Yrotation 
		JOINT Spine
		{
			OFFSET 15.7357 0.0 0.0
			CHANNELS 6 Xposition Yposition Zposition Zrotation Xrotation Yrotation 
			JOINT Chest
			{
				OFFSET 8.98455 -0.406207 0.0
				CHANNELS 6 Xposition Yposition Zposition Zrotation Xrotation Yrotation 
				JOINT Neck
				{
					OFFSET 16.3773 0.0 0.0
					CHANNELS 6 Xposition Yposition Zposition Zrotation Xrotation Yrotation 
					JOINT Head
					{
						OFFSET 6.45672 0.0 0.0
						CHANNELS 6 Xposition Yposition Zposition Zrotation Xrotation Yrotation 
						End Site
						{
							OFFSET 0.0 0.0 0.0
						}
					}
				}
				JOINT Shoulder_L
				{
					OFFSET 12.9942 -0.242716 4.98039
					CHANNELS 6 Xposition Yposition Zposition Zrotation Xrotation Yrotation 
					JOINT UpperArm_L
					{
						OFFSET 5.34809 0.0 0.0
						CHANNELS 6 Xposition Yposition Zposition Zrotation Xrotation Yrotation 
						JOINT LowerArm_L
						{
							OFFSET 24.3286 1.87007e-05 0.0
							CHANNELS 6 Xposition Yposition Zposition Zrotation Xrotation Yrotation 
							JOINT Hand_L
							{
								OFFSET 22.2916 0.0 0.0
								CHANNELS 6 Xposition Yposition Zposition Zrotation Xrotation Yrotation 
								End Site
								{
									OFFSET 0.0 0.0 0.0
								}
							}
						}
					}
				}
				JOINT Shoulder_R
				{
					OFFSET 12.9945 -0.242716 -4.98039
					CHANNELS 6 Xposition Yposition Zposition Zrotation Xrotation Yrotation 
					JOINT UpperArm_R
					{
						OFFSET -5.34813 0.0 0.0
						CHANNELS 6 Xposition Yposition Zposition Zrotation Xrotation Yrotation 
						JOINT LowerArm_R
						{
							OFFSET -24.3289 0.000322201 0.0
							CHANNELS 6 Xposition Yposition Zposition Zrotation Xrotation Yrotation 
							JOINT Hand_R
							{
								OFFSET -22.2915 -0.000108084 0.0
								CHANNELS 6 Xposition Yposition Zposition Zrotation Xrotation Yrotation 
								End Site
								{
									OFFSET 0.0 0.0 0.0
								}
							}
						}
					}
				}
			}
		}
		JOINT UpperLeg_L
		{
			OFFSET -2.19248 -6.46944 0.0
			CHANNELS 6 Xposition Yposition Zposition Zrotation Xrotation Yrotation 
			JOINT LowerLeg_L
			{
				OFFSET 39.0811 0.0 -1.23785e-05
				CHANNELS 6 Xposition Yposition Zposition Zrotation Xrotation Yrotation 
				JOINT Foot_L
				{
					OFFSET 40.9854 0.0 -1.26872e-05
					CHANNELS 6 Xposition Yposition Zposition Zrotation Xrotation Yrotation 
					JOINT Toes_L
					{
						OFFSET 11.7543 0.0 0.0
						CHANNELS 6 Xposition Yposition Zposition Zrotation Xrotation Yrotation 
						End Site
						{
							OFFSET 0.0 0.0 0.0
						}
					}
				}
			}
		}
		JOINT UpperLeg_R
		{
			OFFSET -2.19251 6.46944 0.0
			CHANNELS 6 Xposition Yposition Zposition Zrotation Xrotation Yrotation 
			JOINT LowerLeg_R
			{
				OFFSET -39.0811 -0.00228153 -0.0401928
				CHANNELS 6 Xposition Yposition Zposition Zrotation Xrotation Yrotation 
				JOINT Foot_R
				{
					OFFSET -40.9854 0.0 0.0
					CHANNELS 6 Xposition Yposition Zposition Zrotation Xrotation Yrotation 
					JOINT Toes_R
					{
						OFFSET -11.7543 0.0 0.0
						CHANNELS 6 Xposition Yposition Zposition Zrotation Xrotation Yrotation 
						End Site
						{
							OFFSET 0.0 0.0 0.0
						}
					}
				}
			}
		}
	}
}
MOTION
Frames:	9
Frame Time:	0.0333333
0.000000 0.000000 0.000000 0.000000 0.000000 -0.000000 -95.921000 91.326200 172.767000 54.266600 82.296400 31.632000 15.735700 0.000005 -0.000001 82.640700 81.687800 -82.487800 8.984550 -0.406207 -0.000000 8.728710 -2.117570 0.467241 16.377300 -0.000001 -0.000001 -2.340850 -1.379410 1.115060 6.456720 -0.000001 -0.000000 -7.585390 -0.333079 3.403890 12.994200 -0.242716 4.980390 -90.730400 3.034960 -76.461700 5.348090 -0.000007 -0.000001 -57.922800 23.031000 -25.177300 24.328600 0.000019 0.000005 12.129300 15.957900 -38.014900 22.291600 -0.000001 0.000005 15.014400 5.280250 0.619492 12.994500 -0.242716 -4.980390 88.618500 9.127140 -81.355100 -5.348130 -0.000001 -0.000004 -65.385100 27.572700 -4.908880 -24.328900 0.000322 -0.000009 2.493990 5.067230 -26.259100 -22.291500 -0.000108 -0.000004 16.752400 5.432790 -4.035150 -2.192480 -6.469440 -0.000000 -176.697000 -13.443300 -13.207500 39.081100 -0.000007 -0.000012 -0.188599 0.327136 29.964400 40.985400 -0.000006 -0.000013 1.979390 1.727060 -71.214600 11.754300 -0.000000 0.000003 -0.000204 -0.001879 -16.648400 -2.192510 6.469440 -0.000001 -169.519000 21.896100 154.248000 -39.081100 -0.002282 -0.040193 0.022938 -0.057829 18.735600 -40.985400 0.000008 0.000006 0.629855 13.790800 -53.485300 -11.754300 -0.000006 -0.000006 -0.008102 -0.088867 -20.191900
0.000000 0.000000 0.000000 0.000000 0.000000 -0.000000 -94.388300 91.151300 173.073000 53.666300 82.432100 31.942600 15.735700 0.000005 -0.000001 82.413100 81.660400 -82.141200 8.984550 -0.406207 -0.000000 8.777240 -2.188700 0.711428 16.377300 -0.000001 -0.000001 -1.978780 -1.582060 1.050170 6.456720 -0.000001 -0.000000 -7.446950 -0.521213 3.237540 12.994200 -0.242716 4.980390 -90.733300 3.063590 -76.532200 5.348090 -0.000007 -0.000001 -57.394700 22.556500 -26.121300 24.328600 0.000019 0.000005 11.949700 15.726400 -37.983500 22.291600 -0.000001 0.000005 15.446900 5.283560 0.528768 12.994500 -0.242716 -4.980390 88.599700 9.172260 -81.281500 -5.348130 -0.000001 -0.000004 -65.200000 27.596400 -4.914960 -24.328900 0.000322 -0.000009 2.493110 5.144180 -25.911100 -22.291500 -0.000108 -0.000004 16.596600 5.431240 -3.981450 -2.192480 -6.469440 -0.000000 -176.393000 -13.615500 -12.321200 39.081100 -0.000007 -0.000012 -0.200509 0.347808 29.963500 40.985400 -0.000006 -0.000013 1.741510 2.018100 -72.325700 11.754300 -0.000000 0.000003 -0.000227 -0.002063 -16.655100 -2.192510 6.469440 -0.000001 -167.619000 22.733400 153.330000 -39.081100 -0.002282 -0.040193 0.022045 -0.067689 15.456100 -40.985400 0.000008 0.000006 3.840500 16.081200 -55.570400 -11.754300 -0.000006 -0.000006 -0.008277 -0.090279 -20.249600
0.000000 0.000000 0.000000 0.000000 0.000000 -0.000000 -92.543900 90.884900 173.515000 52.763300 82.722600 32.800200 15.735700 0.000005 -0.000001 82.308300 81.644200 -81.904300 8.984550 -0.406207 -0.000000 8.808160 -2.221790 0.978372 16.377300 -0.000001 -0.000001 -1.482840 -1.738400 0.947119 6.456720 -0.000001 -0.000000 -6.932900 -0.748894 3.034780 12.994200 -0.242716 4.980390 -90.741400 3.076540 -76.443200 5.348090 -0.000007 -0.000001 -57.486600 22.096900 -26.468800 24.328600 0.000019 0.000005 11.979600 15.872900 -37.804400 22.291600 -0.000001 0.000005 15.374400 5.284960 0.490037 12.994500 -0.242716 -4.980390 88.564400 9.239560 -81.128700 -5.348130 -0.000001 -0.000004 -64.989900 27.818400 -5.016520 -24.328900 0.000322 -0.000009 2.484300 5.227260 -25.474300 -22.291500 -0.000108 -0.000004 16.468100 5.427030 -3.837350 -2.192480 -6.469440 -0.000000 -175.947000 -13.494100 -10.994700 39.081100 -0.000007 -0.000012 -0.218666 0.378283 30.030400 40.985400 -0.000006 -0.000013 1.374180 2.259360 -73.668700 11.754300 -0.000000 0.000003 -0.000210 -0.001927 -16.650200 -2.192510 6.469440 -0.000001 -166.896000 22.631400 152.487000 -39.081100 -0.002282 -0.040193 0.029501 -0.095228 15.367400 -40.985400 0.000008 0.000006 5.622110 14.898400 -55.947800 -11.754300 -0.000006 -0.000006 -0.008211 -0.089748 -20.227900
0.000000 0.000000 0.000000 0.000000 0.000000 -0.000000 -90.351400 90.555900 174.045000 51.388700 83.235200 34.343900 15.735700 0.000005 -0.000001 82.095100 81.618200 -81.533100 8.984550 -0.406207 -0.000000 8.855090 -2.288420 1.300360 16.377300 -0.000001 -0.000001 -0.885342 -1.844520 0.831820 6.456720 -0.000001 -0.000000 -6.368990 -0.869701 2.720240 12.994200 -0.242716 4.980390 -90.766800 3.143010 -76.281400 5.348090 -0.000007 -0.000001 -57.989500 21.849600 -26.175600 24.328600 0.000019 0.000005 11.993900 16.026000 -37.579200 22.291600 -0.000001 0.000005 15.419000 5.282150 0.566965 12.994500 -0.242716 -4.980390 88.526100 9.256790 -80.912600 -5.348130 -0.000001 -0.000004 -64.833000 27.869600 -5.173040 -24.328900 0.000322 -0.000009 2.564840 5.475690 -25.156100 -22.291500 -0.000108 -0.000004 16.293100 5.420000 -3.599360 -2.192480 -6.469440 -0.000000 -175.445000 -12.951300 -9.035190 39.081100 -0.000007 -0.000012 -0.228691 0.399510 29.788400 40.985400 -0.000006 -0.000013 0.896794 2.436680 -75.112300 11.754300 -0.000000 0.000003 -0.000175 -0.001651 -16.640100 -2.192510 6.469440 -0.000001 -167.754000 21.446700 151.507000 -39.081100 -0.002282 -0.040193 0.039873 -0.104500 19.277900 -40.985400 0.000008 0.000006 6.140560 12.239600 -53.774700 -11.754300 -0.000006 -0.000006 -0.009886 -0.102786 -20.760800
0.000000 0.000000 0.000000 0.000000 0.000000 -0.000000 -87.991500 90.265300 174.681000 48.056700 83.796300 37.833300 15.735700 0.000005 -0.000001 82.021800 81.603600 -81.237700 8.984550 -0.406207 -0.000000 8.886060 -2.311210 1.746590 16.377300 -0.000001 -0.000001 -0.487666 -1.907450 0.722338 6.456720 -0.000001 -0.000000 -5.836260 -0.876134 2.430430 12.994200 -0.242716 4.980390 -90.844700 3.394920 -76.018800 5.348090 -0.000007 -0.000001 -58.480400 21.946300 -25.388100 24.328600 0.000019 0.000005 12.007300 16.085000 -37.511700 22.291600 -0.000001 0.000005 15.628600 5.278620 0.663534 12.994500 -0.242716 -4.980390 88.452700 9.501620 -80.706800 -5.348130 -0.000001 -0.000004 -64.413600 27.922900 -5.409730 -24.328900 0.000322 -0.000009 2.546840 5.454310 -25.086600 -22.291500 -0.000108 -0.000004 16.313200 5.417680 -3.520560 -2.192480 -6.469440 -0.000000 -175.192000 -12.318200 -6.965320 39.081100 -0.000007 -0.000012 -0.003995 0.007088 29.408800 40.985400 -0.000006 -0.000013 3.390010 1.712520 -76.799300 11.754300 -0.000000 0.000003 -1.100790 -1.403580 -15.709900 -2.192510 6.469440 -0.000001 -168.684000 20.170200 151.183000 -39.081100 -0.002282 -0.040193 0.022613 -0.045702 22.890800 -40.985400 0.000008 0.000006 6.202230 10.555900 -52.613900 -11.754300 -0.000006 -0.000006 -0.010082 -0.104247 -20.820600
0.000000 0.000000 0.000000 0.000000 0.000000 -0.000000 -85.467000 90.090000 175.378000 45.258000 84.336500 40.992600 15.735700 0.000005 -0.000001 82.269200 81.571800 -81.288700 8.984550 -0.406207 -0.000000 8.962310 -2.245510 2.135480 16.377300 -0.000001 -0.000001 -0.103145 -1.938060 0.650322 6.456720 -0.000001 -0.000000 -5.394170 -0.920395 2.161560 12.994200 -0.242716 4.980390 -90.925900 3.660830 -75.796800 5.348090 -0.000007 -0.000001 -59.339400 22.180000 -23.757700 24.328600 0.000019 0.000005 12.028400 16.084400 -37.562700 22.291600 -0.000001 0.000005 16.142500 5.274570 0.774503 12.994500 -0.242716 -4.980390 88.383200 9.735670 -80.523600 -5.348130 -0.000001 -0.000004 -63.939100 28.220800 -5.773550 -24.328900 0.000322 -0.000009 2.440450 5.241930 -25.018500 -22.291500 -0.000108 -0.000004 16.522600 5.421160 -3.638370 -2.192480 -6.469440 -0.000000 -174.487000 -11.654500 -6.106860 39.081100 -0.000007 -0.000012 0.001601 -0.002629 31.338800 40.985400 -0.000006 -0.000013 2.707430 2.141530 -75.598700 11.754300 -0.000000 0.000003 -1.495650 -1.837540 -17.844600 -2.192510 6.469440 -0.000001 -169.994000 18.351900 151.621000 -39.081100 -0.002282 -0.040193 -0.014882 0.036649 26.398500 -40.985400 0.000008 0.000006 5.872700 7.889820 -53.885500 -11.754300 -0.000006 -0.000006 -0.007012 -0.079769 -19.820500
0.000000 0.000000 0.000000 0.000000 0.000000 -0.000000 -82.898300 90.008400 176.095000 44.416200 84.988300 42.360200 15.735700 0.000005 -0.000001 82.589300 81.536400 -81.531300 8.984550 -0.406207 -0.000000 9.045440 -2.159950 2.285170 16.377300 -0.000001 -0.000001 0.194566 -1.987990 0.636163 6.456720 -0.000001 -0.000000 -4.766270 -0.996600 1.979980 12.994200 -0.242716 4.980390 -90.938300 3.648570 -75.568100 5.348090 -0.000007 -0.000001 -60.709900 22.525300 -21.491700 24.328600 0.000019 0.000005 12.221600 16.376200 -37.533100 22.291600 -0.000001 0.000005 16.313800 5.268420 0.940660 12.994500 -0.242716 -4.980390 88.384400 9.689780 -80.487000 -5.348130 -0.000001 -0.000004 -63.798300 28.509900 -6.310250 -24.328900 0.000322 -0.000009 2.501930 5.412030 -24.866300 -22.291500 -0.000108 -0.000004 16.362400 5.418410 -3.545430 -2.192480 -6.469440 -0.000000 -173.969000 -11.097100 -6.181420 39.081100 -0.000007 -0.000012 0.015629 -0.022167 35.183200 40.985400 -0.000006 -0.000013 1.964900 2.821670 -73.849000 11.754300 -0.000000 0.000003 -0.010533 -0.107585 -20.960800 -2.192510 6.469440 -0.000001 -171.291000 17.363100 152.550000 -39.081100 -0.002282 -0.040193 -0.088905 0.161334 29.749300 -40.985400 0.000008 0.000006 5.599580 6.300900 -57.315400 -11.754300 -0.000006 -0.000006 -0.004882 -0.060319 -19.027200
0.000000 0.000000 0.000000 0.000000 0.000000 -0.000000 -80.358400 90.034200 176.817000 41.773700 85.854100 45.810200 15.735700 0.000005 -0.000001 82.717400 81.430300 -81.617800 8.984550 -0.406207 -0.000000 9.261540 -2.146360 2.371500 16.377300 -0.000001 -0.000001 0.511938 -2.176740 0.729558 6.456720 -0.000001 -0.000000 -4.212500 -1.170620 1.772160 12.994200 -0.242716 4.980390 -90.948800 3.653900 -75.432700 5.348090 -0.000007 -0.000001 -62.053800 23.107800 -19.187100 24.328600 0.000019 0.000005 12.091600 16.617600 -36.836600 22.291600 -0.000001 0.000005 16.162900 5.267410 0.968344 12.994500 -0.242716 -4.980390 88.408200 9.511420 -80.453600 -5.348130 -0.000001 -0.000004 -63.571200 29.110000 -7.114750 -24.328900 0.000322 -0.000009 2.447150 5.291670 -24.872200 -22.291500 -0.000108 -0.000004 16.418000 5.416620 -3.485310 -2.192480 -6.469440 -0.000000 -173.558000 -9.860620 -7.407290 39.081100 -0.000007 -0.000012 0.036272 -0.041957 40.841600 40.985400 -0.000006 -0.000013 1.389930 3.303260 -70.196700 11.754300 -0.000000 0.000003 -0.031002 -0.222030 -25.675400 -2.192510 6.469440 -0.000001 -172.362000 17.582300 154.369000 -39.081100 -0.002282 -0.040193 -0.147553 0.243626 31.765500 -40.985400 0.000008 0.000006 5.525120 5.568510 -60.239700 -11.754300 -0.000006 -0.000006 -0.003586 -0.047060 -18.487200
0.000000 0.000000 0.000000 0.000000 0.000000 -0.000000 -77.908900 90.082000 177.497000 41.681600 86.716200 46.874900 15.735700 0.000005 -0.000001 83.417800 81.302400 -82.397900 8.984550 -0.406207 -0.000000 9.537000 -1.966680 2.202500 16.377300 -0.000001 -0.000001 0.824907 -2.485850 0.923356 6.456720 -0.000001 -0.000000 -3.733690 -1.535880 1.659860 12.994200 -0.242716 4.980390 -90.980300 3.735540 -75.283900 5.348090 -0.000007 -0.000001 -63.023700 24.139000 -17.037800 24.328600 0.000019 0.000005 11.996900 17.066300 -35.907600 22.291600 -0.000001 0.000005 15.667400 5.261870 1.117050 12.994500 -0.242716 -4.980390 88.406600 9.484640 -80.418200 -5.348130 -0.000001 -0.000004 -62.990500 29.740000 -8.121940 -24.328900 0.000322 -0.000009 2.483280 5.280040 -25.242600 -22.291500 -0.000108 -0.000004 16.482200 5.416520 -3.482530 -2.192480 -6.469440 -0.000000 -173.642000 -8.012350 -9.502460 39.081100 -0.000007 -0.000012 0.054251 -0.049858 47.414100 40.985400 -0.000006 -0.000013 1.110770 2.707480 -65.662500 11.754300 -0.000000 0.000003 -0.025447 -0.195795 -24.588200 -2.192510 6.469440 -0.000001 -173.543000 17.958800 156.636000 -39.081100 -0.002282 -0.040193 -0.190715 0.297447 33.114600 -40.985400 0.000008 0.000006 5.497870 5.086940 -62.804500 -11.754300 -0.000006 -0.000006 -0.002836 -0.038736 -18.148400
